<?xml version="1.0" standalone="no"?>
<!DOCTYPE svg PUBLIC "-//W3C//DTD SVG 20010904//EN"
 "http://www.w3.org/TR/2001/REC-SVG-20010904/DTD/svg10.dtd">
<svg version="1.0" xmlns="http://www.w3.org/2000/svg"  viewBox="0 470 1024 210" width="210" height="80"
 preserveAspectRatio="xMidYMid meet" >

<g transform="translate(0.000000,1024.000000) scale(0.100000,-0.100000)"
fill="#00aeef" stroke="none">
<path d="M1210 5989 c-28 -12 -76 -54 -93 -84 -8 -13 -14 -99 -17 -239 l-5
-218 -200 -105 c-110 -58 -208 -112 -217 -121 -23 -19 -23 -55 0 -74 9 -8 101
-59 204 -112 103 -53 194 -104 203 -112 12 -13 15 -50 15 -225 0 -239 7 -267
77 -310 33 -21 53 -24 153 -27 126 -3 163 7 168 46 7 45 -11 52 -140 52 -113
0 -120 1 -143 25 l-25 24 0 223 c0 188 -3 227 -16 246 -9 13 -96 63 -197 113
-169 85 -180 92 -162 106 11 8 90 50 175 93 85 43 165 88 177 101 21 23 22 34
25 245 4 279 -5 264 152 264 85 0 117 4 134 16 27 19 29 60 3 74 -25 13 -238
12 -271 -1z"/>
<path d="M8776 5985 c-9 -10 -16 -27 -14 -38 5 -35 44 -47 160 -47 153 0 148
9 148 -265 0 -198 1 -214 20 -238 12 -14 99 -67 195 -117 96 -50 175 -93 175
-96 0 -2 -77 -42 -171 -90 -94 -47 -182 -96 -195 -109 -24 -24 -24 -25 -24
-253 0 -284 12 -265 -168 -272 -127 -5 -127 -5 -136 -32 -18 -51 0 -58 153
-58 128 0 139 1 172 24 64 43 69 67 69 304 0 172 3 213 15 225 8 8 99 59 202
112 103 54 196 104 206 113 27 24 21 58 -15 85 -18 13 -109 64 -203 112 -93
48 -178 94 -187 103 -16 13 -18 38 -18 227 0 203 -1 213 -22 245 -47 68 -65
75 -212 78 -115 3 -135 1 -150 -13z"/>
<path d="M2147 5886 c-158 -57 -289 -273 -348 -577 -19 -95 -16 -300 5 -378
47 -175 137 -249 288 -239 114 8 221 72 304 181 99 131 113 247 30 247 -31 0
-48 -23 -76 -98 -45 -125 -167 -222 -277 -222 -47 0 -58 4 -92 36 -63 56 -76
108 -76 299 1 131 5 176 23 248 69 276 201 432 334 396 62 -16 81 -55 74 -155
-4 -70 -2 -84 13 -98 23 -21 54 -20 81 2 48 39 36 203 -21 282 -55 76 -169
109 -262 76z"/>
<path d="M2960 5881 c-77 -24 -134 -78 -188 -179 -115 -216 -149 -673 -64
-864 44 -100 114 -147 217 -148 181 0 305 192 359 553 39 261 1 491 -95 585
-52 50 -157 75 -229 53z m147 -135 c74 -62 105 -381 59 -593 -54 -246 -162
-376 -286 -343 -76 20 -105 116 -103 335 2 308 89 567 208 616 41 16 92 10
122 -15z"/>
<path d="M3519 5881 c-25 -16 -32 -57 -14 -91 19 -37 19 -127 0 -380 -8 -107
-17 -276 -21 -375 -3 -99 -12 -206 -20 -238 -17 -66 -8 -93 32 -103 30 -8 43
-4 207 60 182 70 251 110 343 201 123 121 174 242 174 415 0 141 -47 248 -152
345 -72 67 -167 115 -283 145 -94 24 -243 36 -266 21z m358 -166 c145 -72 220
-177 230 -323 11 -154 -36 -272 -148 -376 -91 -84 -234 -158 -311 -160 l-53
-1 -3 75 c-7 150 38 773 58 811 11 20 18 21 81 17 54 -4 87 -14 146 -43z"/>
<path d="M5405 5876 c-145 -24 -195 -45 -195 -81 0 -7 11 -27 25 -43 22 -27
25 -39 25 -115 0 -114 -26 -459 -50 -673 -26 -229 -26 -240 5 -260 21 -14 30
-14 54 -4 16 6 32 19 36 28 3 10 11 110 16 224 14 307 28 357 100 358 38 0 62
-33 112 -150 25 -58 82 -180 126 -273 63 -131 86 -170 106 -177 44 -17 95 17
95 64 0 8 -18 34 -41 57 -52 54 -230 410 -232 462 -1 47 11 59 105 109 99 53
189 133 217 193 57 121 1 227 -143 271 -70 21 -262 27 -361 10z m346 -117 c52
-29 75 -65 65 -103 -18 -74 -168 -182 -321 -231 -82 -27 -85 -27 -111 -10
l-27 17 5 127 c3 80 10 137 19 156 25 53 104 76 240 71 69 -3 96 -8 130 -27z"/>
<path d="M6327 5876 c-113 -31 -192 -146 -247 -363 -29 -112 -42 -226 -42
-368 1 -302 77 -442 246 -453 80 -5 139 22 202 91 103 114 166 312 188 593 13
153 -31 350 -96 428 -56 69 -158 98 -251 72z m145 -126 c59 -46 92 -203 85
-408 -5 -167 -26 -263 -82 -377 -57 -117 -102 -155 -182 -155 -108 0 -138 74
-137 335 0 242 41 427 120 542 55 80 140 107 196 63z"/>
<path d="M7108 5875 c-163 -52 -280 -356 -281 -730 0 -306 85 -454 262 -455
174 0 300 185 357 525 49 292 -5 562 -127 637 -56 34 -144 44 -211 23z m172
-135 c52 -56 88 -291 70 -460 -32 -318 -166 -522 -307 -469 -48 19 -71 59 -88
156 -36 198 4 513 84 671 46 91 98 131 169 132 36 0 49 -5 72 -30z"/>
<path d="M7758 5879 c-33 -12 -48 -53 -48 -128 0 -50 -66 -596 -105 -861 -26
-178 -21 -200 45 -200 52 0 60 13 60 100 0 42 7 121 15 176 8 54 28 207 45
339 33 259 36 278 53 272 16 -5 54 -115 93 -265 38 -148 46 -167 74 -182 44
-23 66 4 166 204 116 232 143 278 158 273 12 -4 21 -174 30 -612 6 -245 9
-282 23 -292 47 -35 130 10 120 65 -22 111 -28 203 -39 543 -6 212 -8 418 -5
458 6 68 4 75 -18 97 -28 28 -61 31 -93 8 -14 -10 -67 -106 -133 -242 -146
-301 -176 -339 -199 -249 -50 196 -137 462 -158 480 -25 21 -53 27 -84 16z"/>
<path d="M4438 5858 c-15 -15 -16 -31 -11 -120 5 -99 -17 -406 -53 -733 -20
-186 -19 -250 6 -275 30 -30 58 -33 189 -21 66 6 174 11 240 11 132 0 168 10
178 48 15 63 -25 69 -306 53 -116 -7 -180 -7 -192 0 -15 8 -19 21 -19 68 0 70
28 294 41 328 14 36 52 45 219 49 144 3 156 5 173 25 24 29 21 56 -7 74 -22
14 -43 15 -175 6 -97 -7 -159 -7 -176 -1 -23 9 -25 14 -25 72 1 89 25 287 37
299 21 21 92 29 260 29 166 0 172 1 187 22 20 28 20 39 2 64 -14 18 -29 19
-283 19 -239 0 -270 -2 -285 -17z"/>
<path d="M4925 4459 c-542 -19 -1106 -55 -1580 -100 -60 -6 -153 -12 -206 -14
-139 -4 -177 -12 -196 -41 -29 -46 -13 -49 245 -48 201 0 609 24 678 39 94 21
1660 40 2049 25 536 -20 789 -32 1004 -46 124 -8 251 -14 283 -14 l57 0 11 40
c12 44 7 71 -15 90 -22 19 -547 51 -1110 69 -322 10 -937 10 -1220 0z"/>
</g>
</svg>
